<svg xmlns="http://www.w3.org/2000/svg" viewBox="0 0 480.62 476.49"><defs><style>.cls-1{fill:#fff;}</style></defs><g id="Layer_2" data-name="Layer 2"><g id="Layer_1-2" data-name="Layer 1"><path class="cls-1" d="M236.34,476.49c-9.84-.83-23.3-1.24-36.52-3.23a223.83,223.83,0,0,1-87.94-32.79A249.76,249.76,0,0,1,36,365.26,218.93,218.93,0,0,1,6.69,297a191.45,191.45,0,0,1-5.64-36.14C.48,248.56-.39,236.24.2,224a254.55,254.55,0,0,1,4.46-34.62A216,216,0,0,1,25.3,130.11C37.2,107,52.91,86.82,71.44,68.67a236,236,0,0,1,68.88-47.43A193.3,193.3,0,0,1,176.14,8.73c11-2.52,22.1-4.41,33.19-6.39,3.26-.58,6.7-.21,9.94-.85C231.19-.87,243.21.19,255.15.56c9.24.29,18.47,2.07,27.64,3.55a225.4,225.4,0,0,1,41.78,10.94C357.14,27,385.4,45.52,410,69.94c20.73,20.55,37.67,43.67,49.73,70.3a215.3,215.3,0,0,1,16.66,54.19c1.07,6.57,1.4,13.26,2.67,19.79,2.18,11.21,1.47,22.5,1.27,33.75A176.16,176.16,0,0,1,478,272.2c-1.54,9.85-3.42,19.68-5.82,29.36a212.33,212.33,0,0,1-23.75,56.9c-16.2,27.48-37.65,50.34-62.65,69.87a229.68,229.68,0,0,1-122.6,46.84C255.45,475.7,247.69,476,236.34,476.49ZM179.94,93.87l-1-.42c-4.37,2.14-8.81,4.15-13.1,6.46-19,10.18-35.75,23-48.91,40.24A172.29,172.29,0,0,0,84,214.23a134.78,134.78,0,0,0,.66,52.38,174.65,174.65,0,0,0,18.86,50.18C120.26,346.74,144.77,368,175.79,382a24.43,24.43,0,0,0,2.91.89Q179.32,237.92,179.94,93.87ZM305.77,238.51h-.51c0,19.77,0,39.54,0,59.31q-.12,40.26-.33,80.52c0,2.89.49,3.23,3,2a161.41,161.41,0,0,0,41.42-28c11.32-10.67,20.34-23.21,27.94-36.77a166.66,166.66,0,0,0,21.1-70.38c1.1-15.57-1.28-30.88-5.58-45.78-11.16-38.67-31.88-70.62-66.47-92.45-5.7-3.6-11.76-6.61-17.63-9.93-2.13-1.21-2.86-.45-2.78,1.75,0,.46,0,.92,0,1.39q-.07,48-.16,96Q305.74,217.34,305.77,238.51ZM179.83,50.25H180c0-5.36-.07-10.72,0-16.07,0-2.29-.27-3.13-3-2.31a229.84,229.84,0,0,0-42.57,18c-29.89,16.33-55,38-74,66.45A230.14,230.14,0,0,0,23.56,210a185.85,185.85,0,0,0,.64,61.32,227.25,227.25,0,0,0,12.91,45.55c10.59,26.42,25.33,50.28,45,70.75,26.25,27.26,58.08,45.74,94,57.25,2.37.76,2.48-.6,2.49-2.26,0-10.65,0-21.3.12-31.95A3.41,3.41,0,0,0,176.2,407a165.44,165.44,0,0,1-49.67-28.77c-13.76-11.66-26.21-24.53-36.46-39.43-17.81-25.88-27.23-54.73-29.35-85.87-1.48-21.7.15-43.24,6-64.37a168.87,168.87,0,0,1,42.57-73.68c11.08-11.38,22.95-21.77,36.56-30.07a168.08,168.08,0,0,1,31.66-15.25,3.1,3.1,0,0,0,2.36-3.5C179.72,60.79,179.83,55.52,179.83,50.25ZM306.77,33.09a15,15,0,0,0-.56,2.66q-.1,16.24-.14,32.48a3.3,3.3,0,0,0,2.49,3.52,71.26,71.26,0,0,1,6.63,2.82c29.56,13.54,53.21,34.27,72.39,60.23,19.92,27,29.91,57.64,32,90.86,1.34,21.34-.4,42.51-6.25,63.24-4,14.15-9.38,27.73-17.11,40.21-21.38,34.54-50.11,60.75-88.05,76.21-2.61,1.07-3.4,2.53-3.37,5.19.11,10.45.05,20.89,0,31.34,0,2.06.55,2.55,2.65,1.86a236.93,236.93,0,0,0,59.33-29.61c26.06-17.74,46.27-40.73,62-67.85a222.6,222.6,0,0,0,26.42-70.9c2.37-12.57,4.06-25.23,3.79-38.06a218.53,218.53,0,0,0-13.24-70,222.78,222.78,0,0,0-49.52-79.84c-13.08-13.61-28.3-24.65-44.59-34.19A224.51,224.51,0,0,0,306.77,33.09Zm-54.59,205h-.64V450.6c0,3.26.57,4,3.9,3.63q12-1.39,23.9-3.15c4.68-.69,4.65-.84,4.68-5.69,0-.27,0-.55,0-.83q.06-46,.12-91.93.27-95.55.62-191.1.25-65.41.64-130.83c0-2.44-.59-3.83-3.19-4.21-8.31-1.2-16.61-2.55-24.93-3.77-4-.6-4.21-.35-4.23,3.78Q252.61,132.32,252.18,238.13Zm-52.37-.53h-.29c0,35.66.06,71.31,0,107-.07,33.89-.29,67.78-.44,101.67,0,3.27,1.24,4.85,4.37,5.28,7.78,1.09,15.57,2.13,23.36,3.17,3.06.4,3.57-.06,3.58-3.23q.06-34.79.12-69.57.09-34.32.25-68.63c.12-20,.38-40,.49-60.06.08-15.35,0-30.69,0-46q0-28.35.12-56.7c0-19.61,0-39.23.12-58.84q.12-33.37.36-66.76c0-2.18-.84-3-3-2.76-7.62,1-15.25,1.77-22.85,2.85-5.21.74-5.2.9-5.23,6.23Q200.28,134.39,199.81,237.6Z"/></g></g></svg>